<svg width="68" height="29" viewBox="0 0 68 29" fill="none" xmlns="http://www.w3.org/2000/svg">
<path d="M13.072 22H0.496V0.655998H3.152V19.632H13.072V22ZM28.313 20.048C26.9263 21.6053 25.081 22.384 22.777 22.384C20.473 22.384 18.617 21.6053 17.209 20.048C15.8223 18.4907 15.129 16.56 15.129 14.256C15.129 11.952 15.8223 10.032 17.209 8.496C18.617 6.93867 20.473 6.16 22.777 6.16C25.081 6.16 26.9263 6.93867 28.313 8.496C29.721 10.032 30.425 11.952 30.425 14.256C30.425 16.56 29.721 18.4907 28.313 20.048ZM19.001 18.512C19.9397 19.664 21.1983 20.24 22.777 20.24C24.3557 20.24 25.6037 19.664 26.521 18.512C27.4383 17.3387 27.897 15.92 27.897 14.256C27.897 12.592 27.4383 11.184 26.521 10.032C25.6037 8.88 24.3557 8.304 22.777 8.304C21.1983 8.304 19.9397 8.89067 19.001 10.064C18.0837 11.216 17.625 12.6133 17.625 14.256C17.625 15.92 18.0837 17.3387 19.001 18.512ZM40.5455 28.272C39.1802 28.272 38.0175 28.1013 37.0575 27.76C36.0975 27.44 35.1802 26.8427 34.3055 25.968L35.5215 24.176C36.6948 25.584 38.3695 26.288 40.5455 26.288C41.9748 26.288 43.1588 25.904 44.0975 25.136C45.0362 24.3893 45.5055 23.2267 45.5055 21.648V19.44C44.9295 20.2507 44.1828 20.912 43.2655 21.424C42.3482 21.936 41.3668 22.192 40.3215 22.192C38.2735 22.192 36.6095 21.4773 35.3295 20.048C34.0708 18.5973 33.4415 16.6453 33.4415 14.192C33.4415 11.7387 34.0708 9.78667 35.3295 8.336C36.6095 6.88533 38.2735 6.16 40.3215 6.16C42.4335 6.16 44.1615 7.06667 45.5055 8.88V6.544H47.9055V21.552C47.9055 23.92 47.2122 25.6267 45.8255 26.672C44.4388 27.7387 42.6788 28.272 40.5455 28.272ZM40.8975 20.08C41.8148 20.08 42.7002 19.8347 43.5535 19.344C44.4282 18.8533 45.0788 18.256 45.5055 17.552V10.8C45.0788 10.096 44.4388 9.50933 43.5855 9.04C42.7322 8.54933 41.8362 8.304 40.8975 8.304C39.3615 8.304 38.1455 8.848 37.2495 9.936C36.3748 11.024 35.9375 12.4427 35.9375 14.192C35.9375 15.92 36.3855 17.3387 37.2815 18.448C38.1775 19.536 39.3828 20.08 40.8975 20.08ZM65.0005 20.048C63.6138 21.6053 61.7685 22.384 59.4645 22.384C57.1605 22.384 55.3045 21.6053 53.8965 20.048C52.5098 18.4907 51.8165 16.56 51.8165 14.256C51.8165 11.952 52.5098 10.032 53.8965 8.496C55.3045 6.93867 57.1605 6.16 59.4645 6.16C61.7685 6.16 63.6138 6.93867 65.0005 8.496C66.4085 10.032 67.1125 11.952 67.1125 14.256C67.1125 16.56 66.4085 18.4907 65.0005 20.048ZM55.6885 18.512C56.6272 19.664 57.8858 20.24 59.4645 20.24C61.0432 20.24 62.2912 19.664 63.2085 18.512C64.1258 17.3387 64.5845 15.92 64.5845 14.256C64.5845 12.592 64.1258 11.184 63.2085 10.032C62.2912 8.88 61.0432 8.304 59.4645 8.304C57.8858 8.304 56.6272 8.89067 55.6885 10.064C54.7712 11.216 54.3125 12.6133 54.3125 14.256C54.3125 15.92 54.7712 17.3387 55.6885 18.512Z" fill="#0043F1"/>
</svg>
